<mxfile host="app.diagrams.net" agent="Mozilla/5.0 (Macintosh; Intel Mac OS X 10_15_7) AppleWebKit/537.36 (KHTML, like Gecko) Chrome/133.0.0.0 Safari/537.36" version="26.1.0">
  <diagram name="第 1 页" id="aGi-rofj-Qvo6CA43yql">
    <mxGraphModel dx="615" dy="406" grid="1" gridSize="10" guides="1" tooltips="1" connect="1" arrows="1" fold="1" page="1" pageScale="1" pageWidth="827" pageHeight="1169" math="0" shadow="0">
      <root>
        <mxCell id="0" />
        <mxCell id="1" parent="0" />
        <mxCell id="hrZ-a2nCT1J37rPOq_Vz-6" style="edgeStyle=orthogonalEdgeStyle;rounded=0;orthogonalLoop=1;jettySize=auto;html=1;entryX=0.5;entryY=0;entryDx=0;entryDy=0;" edge="1" parent="1" source="hrZ-a2nCT1J37rPOq_Vz-1" target="hrZ-a2nCT1J37rPOq_Vz-2">
          <mxGeometry relative="1" as="geometry" />
        </mxCell>
        <mxCell id="hrZ-a2nCT1J37rPOq_Vz-1" value="开始" style="rounded=1;whiteSpace=wrap;html=1;" vertex="1" parent="1">
          <mxGeometry x="350" y="80" width="100" height="40" as="geometry" />
        </mxCell>
        <mxCell id="hrZ-a2nCT1J37rPOq_Vz-7" style="edgeStyle=orthogonalEdgeStyle;rounded=0;orthogonalLoop=1;jettySize=auto;html=1;entryX=0.5;entryY=0;entryDx=0;entryDy=0;" edge="1" parent="1" source="hrZ-a2nCT1J37rPOq_Vz-2" target="hrZ-a2nCT1J37rPOq_Vz-3">
          <mxGeometry relative="1" as="geometry" />
        </mxCell>
        <mxCell id="hrZ-a2nCT1J37rPOq_Vz-2" value="进入航拍检测系统首页" style="rounded=0;whiteSpace=wrap;html=1;" vertex="1" parent="1">
          <mxGeometry x="312.5" y="150" width="175" height="40" as="geometry" />
        </mxCell>
        <mxCell id="hrZ-a2nCT1J37rPOq_Vz-8" style="edgeStyle=orthogonalEdgeStyle;rounded=0;orthogonalLoop=1;jettySize=auto;html=1;entryX=0.5;entryY=0;entryDx=0;entryDy=0;" edge="1" parent="1" source="hrZ-a2nCT1J37rPOq_Vz-3" target="hrZ-a2nCT1J37rPOq_Vz-5">
          <mxGeometry relative="1" as="geometry" />
        </mxCell>
        <mxCell id="hrZ-a2nCT1J37rPOq_Vz-9" style="edgeStyle=orthogonalEdgeStyle;rounded=0;orthogonalLoop=1;jettySize=auto;html=1;entryX=0;entryY=0.5;entryDx=0;entryDy=0;" edge="1" parent="1" source="hrZ-a2nCT1J37rPOq_Vz-3" target="hrZ-a2nCT1J37rPOq_Vz-4">
          <mxGeometry relative="1" as="geometry" />
        </mxCell>
        <mxCell id="hrZ-a2nCT1J37rPOq_Vz-3" value="是否已经注册" style="rhombus;whiteSpace=wrap;html=1;" vertex="1" parent="1">
          <mxGeometry x="355" y="220" width="90" height="60" as="geometry" />
        </mxCell>
        <mxCell id="hrZ-a2nCT1J37rPOq_Vz-4" value="" style="rounded=0;whiteSpace=wrap;html=1;" vertex="1" parent="1">
          <mxGeometry x="480" y="235" width="120" height="30" as="geometry" />
        </mxCell>
        <mxCell id="hrZ-a2nCT1J37rPOq_Vz-5" value="" style="rounded=0;whiteSpace=wrap;html=1;" vertex="1" parent="1">
          <mxGeometry x="340" y="320" width="120" height="30" as="geometry" />
        </mxCell>
      </root>
    </mxGraphModel>
  </diagram>
</mxfile>
